<?xml version="1.0" encoding="UTF-8" standalone="no"?>
<!-- Generator: Adobe Illustrator 19.0.0, SVG Export Plug-In . SVG Version: 6.00 Build 0)  -->

<svg
   xmlns:dc="http://purl.org/dc/elements/1.1/"
   xmlns:cc="http://creativecommons.org/ns#"
   xmlns:rdf="http://www.w3.org/1999/02/22-rdf-syntax-ns#"
   xmlns:svg="http://www.w3.org/2000/svg"
   xmlns="http://www.w3.org/2000/svg"
   xmlns:sodipodi="http://sodipodi.sourceforge.net/DTD/sodipodi-0.dtd"
   xmlns:inkscape="http://www.inkscape.org/namespaces/inkscape"
   version="1.1"
   id="Capa_1"
   x="0px"
   y="0px"
   viewBox="0 0 490.1 490.1"
   style="enable-background:new 0 0 490.1 490.1;"
   xml:space="preserve"
   sodipodi:docname="notFound.svg"
   inkscape:version="0.92.5 (2060ec1f9f, 2020-04-08)"><metadata
   id="metadata49"><rdf:RDF><cc:Work
       rdf:about=""><dc:format>image/svg+xml</dc:format><dc:type
         rdf:resource="http://purl.org/dc/dcmitype/StillImage" /></cc:Work></rdf:RDF></metadata><defs
   id="defs47" /><sodipodi:namedview
   pagecolor="#ffffff"
   bordercolor="#666666"
   borderopacity="1"
   objecttolerance="10"
   gridtolerance="10"
   guidetolerance="10"
   inkscape:pageopacity="0"
   inkscape:pageshadow="2"
   inkscape:window-width="640"
   inkscape:window-height="480"
   id="namedview45"
   showgrid="false"
   inkscape:zoom="0.48153437"
   inkscape:cx="366.68401"
   inkscape:cy="166.09811"
   inkscape:current-layer="g10" />
<g
   id="g12"
   style="fill:#00238d;fill-opacity:1"
   transform="matrix(0.5338983,0,0,0.5338983,114.21822,114.21822)">
	<g
   id="g10"
   style="fill:#3984c3;fill-opacity:1">
		<path
   d="m 485.58968,79.159525 -154.3,-155.44286 c -3.1,-3.985714 -8.3,-5.4 -12.5,-5.4 H 24.789683 c -11.5,0 -20.9000004,12.085714 -20.9000004,26.871429 V 521.57381 c 0,14.78571 9.4000004,26.87142 20.9000004,26.87142 H 473.08968 c 11.5,0 20.9,-12.08571 20.9,-26.87142 V 99.216665 c 0,-7.97143 -3.1,-14.65714 -8.4,-20.05714 z m -145.9,-80.3571452 94.9,95.1428552 h -94.9 z M 44.589683,495.98809 V -29.354763 H 297.88968 V 119.40238 c 0,14.78571 9.4,26.87142 20.9,26.87142 h 134.5 V 496.11666 H 44.589683 Z"
   id="path2"
   style="fill:#283bc8;fill-opacity:1;stroke-width:1.13389337"
   inkscape:connector-curvature="0" />
		<path
   d="m 326.24484,294.6619 c -11.5,0 -20.9,9.4 -20.9,20.9 v 32.3 h -32.3 c -11.5,0 -20.9,9.4 -20.9,20.9 0,11.5 9.4,20.9 20.9,20.9 h 53.2 c 11.5,0 20.9,-9.4 20.9,-20.9 v -53.2 c 0,-11.5 -9.4,-20.9 -20.9,-20.9 z"
   id="path4"
   style="fill:#283bc8;fill-opacity:1"
   inkscape:connector-curvature="0" />
		<path
   d="m 188.64484,263.3619 v -32.3 h 32.3 c 11.5,0 20.9,-9.4 20.9,-20.9 0,-11.5 -9.4,-20.9 -20.9,-20.9 h -53.2 c -11.5,0 -20.9,9.4 -20.9,20.9 v 53.2 c 0,11.5 9.4,20.9 20.9,20.9 11.5,0 19.9,-9.4 20.9,-20.9 z"
   id="path6"
   style="fill:#283bc8;fill-opacity:1"
   inkscape:connector-curvature="0" />
		<path
   d="m 330.44484,206.0619 c -8.3,-8.3 -20.9,-8.3 -29.2,0 l -136.6,136.5 c -8.3,8.3 -8.3,20.9 0,29.2 11,11 25.1,5.1 29.2,0 l 136.6,-136.6 c 8.3,-8.3 8.3,-20.8 0,-29.1 z"
   id="path8"
   style="fill:#283bc8;fill-opacity:1"
   inkscape:connector-curvature="0" />
	</g>
</g>
<g
   id="g14"
   style="fill:#c1000e;fill-opacity:1"
   transform="matrix(0.5338983,0,0,0.5338983,114.21822,114.21822)">
</g>
<g
   id="g16"
   style="fill:#c1000e;fill-opacity:1"
   transform="matrix(0.5338983,0,0,0.5338983,114.21822,114.21822)">
</g>
<g
   id="g18"
   style="fill:#c1000e;fill-opacity:1"
   transform="matrix(0.5338983,0,0,0.5338983,114.21822,114.21822)">
</g>
<g
   id="g20"
   style="fill:#c1000e;fill-opacity:1"
   transform="matrix(0.5338983,0,0,0.5338983,114.21822,114.21822)">
</g>
<g
   id="g22"
   style="fill:#c1000e;fill-opacity:1"
   transform="matrix(0.5338983,0,0,0.5338983,114.21822,114.21822)">
</g>
<g
   id="g24"
   style="fill:#c1000e;fill-opacity:1"
   transform="matrix(0.5338983,0,0,0.5338983,114.21822,114.21822)">
</g>
<g
   id="g26"
   style="fill:#c1000e;fill-opacity:1"
   transform="matrix(0.5338983,0,0,0.5338983,114.21822,114.21822)">
</g>
<g
   id="g28"
   style="fill:#c1000e;fill-opacity:1"
   transform="matrix(0.5338983,0,0,0.5338983,114.21822,114.21822)">
</g>
<g
   id="g30"
   style="fill:#c1000e;fill-opacity:1"
   transform="matrix(0.5338983,0,0,0.5338983,114.21822,114.21822)">
</g>
<g
   id="g32"
   style="fill:#c1000e;fill-opacity:1"
   transform="matrix(0.5338983,0,0,0.5338983,114.21822,114.21822)">
</g>
<g
   id="g34"
   style="fill:#c1000e;fill-opacity:1"
   transform="matrix(0.5338983,0,0,0.5338983,114.21822,114.21822)">
</g>
<g
   id="g36"
   style="fill:#c1000e;fill-opacity:1"
   transform="matrix(0.5338983,0,0,0.5338983,114.21822,114.21822)">
</g>
<g
   id="g38"
   style="fill:#c1000e;fill-opacity:1"
   transform="matrix(0.5338983,0,0,0.5338983,114.21822,114.21822)">
</g>
<g
   id="g40"
   style="fill:#c1000e;fill-opacity:1"
   transform="matrix(0.5338983,0,0,0.5338983,114.21822,114.21822)">
</g>
<g
   id="g42"
   style="fill:#c1000e;fill-opacity:1"
   transform="matrix(0.5338983,0,0,0.5338983,114.21822,114.21822)">
</g>
</svg>