<?xml version="1.0" encoding="UTF-8" standalone="no"?>
<!-- Generator: Adobe Illustrator 19.0.0, SVG Export Plug-In . SVG Version: 6.00 Build 0)  -->

<svg
   xmlns:dc="http://purl.org/dc/elements/1.1/"
   xmlns:cc="http://creativecommons.org/ns#"
   xmlns:rdf="http://www.w3.org/1999/02/22-rdf-syntax-ns#"
   xmlns:svg="http://www.w3.org/2000/svg"
   xmlns="http://www.w3.org/2000/svg"
   xmlns:sodipodi="http://sodipodi.sourceforge.net/DTD/sodipodi-0.dtd"
   xmlns:inkscape="http://www.inkscape.org/namespaces/inkscape"
   version="1.1"
   id="Capa_1"
   x="0px"
   y="0px"
   viewBox="0 0 512.002 512.002"
   style="enable-background:new 0 0 512.002 512.002;"
   xml:space="preserve"
   sodipodi:docname="prolog.svg"
   inkscape:version="0.92.5 (2060ec1f9f, 2020-04-08)"><metadata
   id="metadata69"><rdf:RDF><cc:Work
       rdf:about=""><dc:format>image/svg+xml</dc:format><dc:type
         rdf:resource="http://purl.org/dc/dcmitype/StillImage" /></cc:Work></rdf:RDF></metadata><defs
   id="defs67" /><sodipodi:namedview
   pagecolor="#ffffff"
   bordercolor="#666666"
   borderopacity="1"
   objecttolerance="10"
   gridtolerance="10"
   guidetolerance="10"
   inkscape:pageopacity="0"
   inkscape:pageshadow="2"
   inkscape:window-width="640"
   inkscape:window-height="480"
   id="namedview65"
   showgrid="false"
   inkscape:zoom="0.46093569"
   inkscape:cx="-837.42703"
   inkscape:cy="256.00101"
   inkscape:current-layer="Capa_1" />
<g
   id="g6"
   transform="matrix(0.70338982,0,0,0.70338982,75.932502,75.932502)">
	<path
   style="fill:#939393;fill-opacity:1"
   d="m 199.113,446.981 c -4.492,0 -8.127,3.639 -8.127,8.127 v 1.298 c 0,4.194 -3.27,7.75 -7.452,8.099 l -71.936,5.996 c -9.73,0.81 -18.016,7.321 -21.103,16.583 l -4.738,14.214 c -1.421,4.258 0.881,8.861 5.135,10.282 0.857,0.286 1.722,0.421 2.571,0.421 3.405,0 6.571,-2.155 7.706,-5.559 l 4.738,-14.214 c 1.032,-3.087 3.794,-5.258 7.04,-5.528 l 4.897,-0.408 v 17.579 c 0,4.488 3.635,8.127 8.127,8.127 4.492,0 8.127,-3.639 8.127,-8.127 v -18.933 l 9.249,-0.771 7.425,22.276 c 1.135,3.405 4.302,5.559 7.706,5.559 0.849,0 1.714,-0.135 2.571,-0.421 4.254,-1.421 6.556,-6.024 5.135,-10.282 l -6.174,-18.522 24.872,-2.073 c 12.54,-1.044 22.357,-11.718 22.357,-24.297 v -1.298 c 0,-4.489 -3.634,-8.128 -8.126,-8.128 z"
   id="path2"
   inkscape:connector-curvature="0" />
	<path
   style="fill:#939393;fill-opacity:1"
   d="m 312.889,446.981 c 4.492,0 8.127,3.639 8.127,8.127 v 1.298 c 0,4.194 3.27,7.75 7.452,8.099 l 71.936,5.996 c 9.73,0.81 18.016,7.321 21.103,16.583 l 4.738,14.214 c 1.421,4.258 -0.881,8.861 -5.135,10.282 -0.857,0.286 -1.722,0.421 -2.571,0.421 -3.405,0 -6.571,-2.155 -7.706,-5.559 l -4.738,-14.214 c -1.032,-3.087 -3.794,-5.258 -7.04,-5.528 l -4.897,-0.408 v 17.579 c 0,4.488 -3.635,8.127 -8.127,8.127 -4.492,0 -8.127,-3.639 -8.127,-8.127 v -18.933 l -9.249,-0.771 -7.425,22.276 c -1.135,3.405 -4.302,5.559 -7.706,5.559 -0.849,0 -1.714,-0.135 -2.571,-0.421 -4.254,-1.421 -6.556,-6.024 -5.135,-10.282 l 6.174,-18.522 -24.872,-2.073 c -12.54,-1.044 -22.357,-11.718 -22.357,-24.297 v -1.298 c 0,-4.489 3.634,-8.128 8.126,-8.128 z"
   id="path4"
   inkscape:connector-curvature="0" />
</g>
<ellipse
   style="fill:#b5141a;fill-opacity:1;stroke-width:0.70338982"
   cx="256.00101"
   cy="273.14896"
   rx="137.19618"
   ry="140.05194"
   id="ellipse8" />
<ellipse
   style="fill:#f14c25;fill-opacity:1;stroke-width:0.70338982"
   cx="256.00101"
   cy="278.86749"
   rx="91.461777"
   ry="122.9033"
   id="ellipse10" />
<path
   style="fill:#d43718;fill-opacity:1;stroke-width:0.70338982"
   d="m 410.34372,173.11143 -18.18826,18.18826 c 0.65978,-4.09092 1.03891,-8.24725 1.03891,-12.47181 0,-56.82756 -61.42351,-102.895378 -137.19337,-102.895378 -75.76986,0 -137.19337,46.067818 -137.19337,102.895378 0,4.22456 0.37913,8.38089 1.03891,12.47181 l -18.18826,-18.18826 c 0,0 -20.676142,51.69001 -22.705422,86.25599 -0.166,2.8213 2.057415,5.20579 4.883636,5.20579 h 12.105338 v 12.64273 c 0,2.57863 2.000441,4.7099 4.573438,4.88153 13.34753,0.89189 53.92327,2.17347 95.17287,-10.84276 -2.56738,-0.96575 60.31286,-29.548 60.31286,-29.548 0,0 57.16379,28.58225 60.31286,29.548 41.2496,13.01553 81.82534,11.73395 95.17287,10.84276 2.573,-0.17163 4.57344,-2.30361 4.57344,-4.88153 v -12.64273 h 12.10534 c 2.82622,0 5.04963,-2.38519 4.88363,-5.20579 -2.02928,-34.56598 -22.70542,-86.25599 -22.70542,-86.25599 z"
   id="path12"
   inkscape:connector-curvature="0" />
<path
   style="fill:#f06b25;fill-opacity:1;stroke-width:0.70338982"
   d="m 391.6652,120.02449 c 19.4431,-10.90465 26.3314,-26.133039 28.77216,-35.540878 0.9341,-3.602059 -2.5526,-6.670949 -6.06392,-5.43861 -43.85917,15.395796 -115.27856,-6.807407 -151.11908,53.899358 -3.28976,5.57155 -11.21626,5.57155 -14.50531,0 C 212.90712,72.237595 141.48773,94.440798 97.629265,79.045705 c -3.511322,-1.232339 -6.998729,1.836551 -6.063924,5.438611 2.440763,9.407135 9.329759,24.636224 28.772159,35.540884 3.3608,1.88508 4.03043,6.39029 1.28087,9.09061 -18.01522,17.69025 -28.266419,43.25566 -25.108199,71.14225 4.408849,38.93614 35.733609,70.48458 74.643029,75.12063 36.11344,4.30263 68.42365,-13.87859 84.8485,-42.37291 16.42556,28.49432 48.73577,46.67554 84.84851,42.37291 38.90942,-4.63605 70.23418,-36.18449 74.64303,-75.12063 3.15751,-27.88659 -7.09299,-53.452 -25.10821,-71.14225 -2.75025,-2.70102 -2.08133,-7.20623 1.28017,-9.09132 z"
   id="path14"
   inkscape:connector-curvature="0" />
<circle
   style="fill:#ffffff;fill-opacity:1;stroke-width:0.70338982"
   cx="181.68787"
   cy="190.26147"
   r="57.16449"
   id="circle16" />
<circle
   style="fill:#c7c7c7;fill-opacity:1;stroke-width:0.70338982"
   cx="181.68787"
   cy="190.26147"
   r="40.014442"
   id="circle18" />
<path
   style="fill:#ebaf4b;stroke-width:0.70338982"
   d="m 259.74796,277.44806 11.35974,-30.29219 c 1.2443,-3.31789 0.43399,-7.0564 -2.07148,-9.56188 l -4.95116,-4.95116 c -4.46512,-4.46512 -11.7037,-4.46512 -16.16812,0 l -4.95116,4.95116 c -2.50547,2.50548 -3.31508,6.24399 -2.07148,9.56188 l 11.35974,30.29219 c 1.29846,3.46208 6.19546,3.46208 7.49392,0 z"
   id="path20"
   inkscape:connector-curvature="0" />
<path
   style="fill:#4b3f4e;stroke-width:0.70338982"
   d="m 181.68787,218.84232 v 0 c -12.62867,0 -22.8658,-10.23713 -22.8658,-22.86579 v -11.4329 c 0,-12.62796 10.23713,-22.8658 22.8658,-22.8658 v 0 c 12.62795,0 22.86579,10.23714 22.86579,22.8658 v 11.4329 c 0,12.62866 -10.23713,22.86579 -22.86579,22.86579 z"
   id="path22"
   inkscape:connector-curvature="0" />
<circle
   style="fill:#ffffff;stroke-width:0.70338982"
   cx="184.54362"
   cy="181.68716"
   r="8.5743217"
   id="circle24" />
<circle
   style="fill:#ffffff;fill-opacity:1;stroke-width:0.70338982"
   cx="330.31415"
   cy="190.26147"
   r="57.16449"
   id="circle26" />
<circle
   style="fill:#c7c7c7;fill-opacity:1;stroke-width:0.70338982"
   cx="330.31415"
   cy="190.26147"
   r="40.014442"
   id="circle28" />
<path
   style="fill:#4b3f4e;stroke-width:0.70338982"
   d="m 330.31413,218.84232 v 0 c -12.62866,0 -22.86579,-10.23713 -22.86579,-22.86579 v -11.4329 c 0,-12.62796 10.23713,-22.8658 22.86579,-22.8658 v 0 c 12.62796,0 22.8658,10.23714 22.8658,22.8658 v 11.4329 c 0,12.62866 -10.23784,22.86579 -22.8658,22.86579 z"
   id="path30"
   inkscape:connector-curvature="0" />
<circle
   style="fill:#ffffff;stroke-width:0.70338982"
   cx="333.16989"
   cy="181.68716"
   r="8.5743217"
   id="circle32" />
<g
   id="g34"
   transform="matrix(0.70338982,0,0,0.70338982,75.932502,75.932502)">
</g>
<g
   id="g36"
   transform="matrix(0.70338982,0,0,0.70338982,75.932502,75.932502)">
</g>
<g
   id="g38"
   transform="matrix(0.70338982,0,0,0.70338982,75.932502,75.932502)">
</g>
<g
   id="g40"
   transform="matrix(0.70338982,0,0,0.70338982,75.932502,75.932502)">
</g>
<g
   id="g42"
   transform="matrix(0.70338982,0,0,0.70338982,75.932502,75.932502)">
</g>
<g
   id="g44"
   transform="matrix(0.70338982,0,0,0.70338982,75.932502,75.932502)">
</g>
<g
   id="g46"
   transform="matrix(0.70338982,0,0,0.70338982,75.932502,75.932502)">
</g>
<g
   id="g48"
   transform="matrix(0.70338982,0,0,0.70338982,75.932502,75.932502)">
</g>
<g
   id="g50"
   transform="matrix(0.70338982,0,0,0.70338982,75.932502,75.932502)">
</g>
<g
   id="g52"
   transform="matrix(0.70338982,0,0,0.70338982,75.932502,75.932502)">
</g>
<g
   id="g54"
   transform="matrix(0.70338982,0,0,0.70338982,75.932502,75.932502)">
</g>
<g
   id="g56"
   transform="matrix(0.70338982,0,0,0.70338982,75.932502,75.932502)">
</g>
<g
   id="g58"
   transform="matrix(0.70338982,0,0,0.70338982,75.932502,75.932502)">
</g>
<g
   id="g60"
   transform="matrix(0.70338982,0,0,0.70338982,75.932502,75.932502)">
</g>
<g
   id="g62"
   transform="matrix(0.70338982,0,0,0.70338982,75.932502,75.932502)">
</g>
</svg>