<?xml version="1.0" encoding="UTF-8" standalone="no"?>
<svg
   xmlns:dc="http://purl.org/dc/elements/1.1/"
   xmlns:cc="http://creativecommons.org/ns#"
   xmlns:rdf="http://www.w3.org/1999/02/22-rdf-syntax-ns#"
   xmlns:svg="http://www.w3.org/2000/svg"
   xmlns="http://www.w3.org/2000/svg"
   xmlns:sodipodi="http://sodipodi.sourceforge.net/DTD/sodipodi-0.dtd"
   xmlns:inkscape="http://www.inkscape.org/namespaces/inkscape"
   width="16"
   height="16"
   viewBox="0 0 16 16"
   fill="none"
   version="1.1"
   id="svg4"
   sodipodi:docname="tex.svg"
   inkscape:version="0.92.5 (2060ec1f9f, 2020-04-08)">
  <metadata
     id="metadata10">
    <rdf:RDF>
      <cc:Work
         rdf:about="">
        <dc:format>image/svg+xml</dc:format>
        <dc:type
           rdf:resource="http://purl.org/dc/dcmitype/StillImage" />
      </cc:Work>
    </rdf:RDF>
  </metadata>
  <defs
     id="defs8" />
  <sodipodi:namedview
     pagecolor="#ffffff"
     bordercolor="#666666"
     borderopacity="1"
     objecttolerance="10"
     gridtolerance="10"
     guidetolerance="10"
     inkscape:pageopacity="0"
     inkscape:pageshadow="2"
     inkscape:window-width="640"
     inkscape:window-height="480"
     id="namedview6"
     showgrid="false"
     inkscape:zoom="14.75"
     inkscape:cx="-9.0847458"
     inkscape:cy="8"
     inkscape:current-layer="svg4" />
  <g
     id="tex"
     transform="matrix(0.78237185,0,0,0.78237185,1.7466074,1.7661069)">
    <path
       id="TEX"
       d="M 1.00684,5 H 5.22119 L 5.22803,6.41162 H 5.02637 C 4.96029,5.90804 4.77116,5.56738 4.45898,5.38965 4.28353,5.29167 4.02149,5.23812 3.67285,5.229 v 3.68457 c 0,0.25749 0.045,0.42839 0.13501,0.5127 0.09001,0.08431 0.27742,0.12646 0.56226,0.12646 V 9.73047 H 1.875 V 9.55273 c 0.27344,0 0.45516,-0.04272 0.54517,-0.12817 0.09,-0.08545 0.13501,-0.25578 0.13501,-0.51099 V 5.229 C 2.21338,5.23812 1.95134,5.29167 1.76904,5.38965 1.43408,5.57194 1.24495,5.9126 1.20166,6.41162 H 1 Z M 5.604,11.2305 v -0.1778 c 0.20053,-0.0068 0.34294,-0.0341 0.42725,-0.082 0.12988,-0.0729 0.19482,-0.2096 0.19482,-0.4102 V 7.17334 C 6.22607,6.96826 6.15885,6.8304 6.02441,6.75977 5.94694,6.71647 5.8068,6.68913 5.604,6.67773 V 6.5 H 9.63721 V 7.91162 H 9.46631 C 9.37744,7.46045 9.22648,7.15169 9.01343,6.98535 8.80037,6.81901 8.41244,6.73584 7.84961,6.73584 7.63542,6.73584 7.49927,6.75806 7.44116,6.80249 7.38306,6.84692 7.354,6.93522 7.354,7.06738 V 8.6875 C 7.75277,8.69206 8.02279,8.61971 8.16406,8.47046 8.30534,8.32121 8.41357,8.04834 8.48877,7.65186 H 8.6665 V 10.0171 H 8.48877 C 8.43864,9.61832 8.33667,9.33748 8.18286,9.17456 8.02905,9.01164 7.75277,8.93018 7.354,8.93018 v 1.69532 c 0,0.1481 0.03817,0.2489 0.11451,0.3025 0.07633,0.0535 0.23299,0.0803 0.46997,0.0803 0.44661,0 0.81119,-0.0866 1.09375,-0.2598 0.28255,-0.1731 0.5332,-0.4978 0.75195,-0.97409 H 9.979 L 9.69531,11.2305 Z M 10.2729,9.55273 C 10.4507,9.52083 10.5783,9.48779 10.6558,9.45361 10.7811,9.39665 10.8962,9.30094 11.001,9.1665 L 12.2246,7.61816 10.8403,5.58447 C 10.7378,5.43636 10.6478,5.33325 10.5703,5.27515 10.4928,5.21704 10.396,5.18457 10.2798,5.17773 V 5 h 2.4233 v 0.17773 c -0.2256,0.0114 -0.3754,0.02963 -0.4494,0.05469 -0.0741,0.02507 -0.1111,0.08431 -0.1111,0.17774 0,0.04101 0.0091,0.08089 0.0273,0.11963 0.0183,0.03873 0.0445,0.0843 0.0786,0.13671 l 0.6802,1.05274 c 0.3828,-0.53549 0.613,-0.86475 0.6904,-0.98779 0.0775,-0.12305 0.1163,-0.22559 0.1163,-0.30762 0,-0.10026 -0.057,-0.16862 -0.1709,-0.20508 C 13.4984,5.19824 13.3844,5.18457 13.2227,5.17773 V 5 h 1.75 V 5.17773 C 14.6628,5.20736 14.4178,5.3116 14.2378,5.49048 14.0578,5.66935 13.6784,6.16552 13.0996,6.979 l 1.2715,1.97559 c 0.1663,0.25749 0.2888,0.41699 0.3674,0.47852 0.0786,0.06152 0.1829,0.10139 0.3128,0.11962 V 9.73047 H 12.6689 V 9.55273 C 12.874,9.54362 13.0096,9.52995 13.0757,9.51172 13.1782,9.4821 13.2295,9.42285 13.2295,9.33398 13.2295,9.2998 13.2187,9.25252 13.197,9.19214 13.1754,9.13175 13.1372,9.05827 13.0825,8.97168 L 12.3784,7.83691 12.1118,8.19238 c -0.2256,0.30306 -0.3782,0.51498 -0.458,0.63574 -0.1322,0.20281 -0.1982,0.34636 -0.1982,0.43067 0,0.12305 0.0809,0.20736 0.2426,0.25293 0.0912,0.02734 0.1994,0.04101 0.3247,0.04101 v 0.17774 h -1.75 z"
       inkscape:connector-curvature="0"
       style="clip-rule:evenodd;fill:#2ecc71;fill-rule:evenodd" />
  </g>
</svg>
